{"title":"Red.Riding.Hood.[2011].DvdRip.XviD-KnÃƒÂ£","uid":6489769,"size":1174351872,"categoryP":"video","categoryS":"movies","magnet":"?xt=urn:btih:5fde190d136d38d9de348acee716d5c46fa1fcc2&amp;dn=Red.Riding.Hood.%5B2011%5D.DvdRip.XviD-Kn%C3%83%C2%A3&amp;tr=udp%3A%2F%2Ftracker.openbittorrent.com%3A80&amp;tr=udp%3A%2F%2Fopen.demonii.com%3A1337&amp;tr=udp%3A%2F%2Ftracker.coppersurfer.tk%3A6969&amp;tr=udp%3A%2F%2Fexodus.desync.com%3A6969","seeders":0,"leechers":1,"uploader":"Jon.Pson","files":1,"time":1308836813,"description":"Set in a medieval village that is haunted by a werewolf, a young girl falls for an orphaned woodcutter, much to her family's displeasure.\n\n\nGeneral\nComplete name                    : H:\\Movies\\Red.Riding.Hood.[2011].DvdRip.XviD-KnÃƒÂ£\\Red.Riding.Hood.[2011].DvdRip.XviD-KnÃƒÂ£.avi\nFormat                           : AVI\nFormat/Info                      : Audio Video Interleave\nFile size                        : 1.09 GiB\nDuration                         : 1h 39mn\nOverall bit rate                 : 1 568 Kbps\nWriting application              : VirtualDubMod 1.5.4.1 (build 2178/release)\nWriting library                  : VirtualDubMod build 2178/release\n\nVideo\nID                               : 0\nFormat                           : MPEG-4 Visual\nFormat profile                   : Simple@L3\nFormat settings, BVOP            : No\nFormat settings, QPel            : No\nFormat settings, GMC             : No warppoints\nFormat settings, Matrix          : Default (H.263)\nCodec ID                         : XVID\nCodec ID/Hint                    : XviD\nDuration                         : 1h 39mn\nBit rate                         : 1 177 Kbps\nWidth                            : 720 pixels\nHeight                           : 304 pixels\nDisplay aspect ratio             : 2.35:1\nFrame rate                       : 23.976 fps\nColor space                      : YUV\nChroma subsampling               : 4:2:0\nBit depth                        : 8 bits\nScan type                        : Progressive\nBits/(Pixel*Frame)               : 0.224\nStream size                      : 841 MiB (75%)\nWriting library                  : XviD 1.2.1 (UTC 2008-12-04)\n\nAudio\nID                               : 1\nFormat                           : AC-3\nFormat/Info                      : Audio Coding 3\nMode extension                   : CM (complete main)\nCodec ID                         : 2000\nDuration                         : 1h 39mn\nBit rate mode                    : Constant\nBit rate                         : 384 Kbps\nChannel(s)                       : 6 channels\nChannel positions                : Front: L C R, Side: L R, LFE\nSampling rate                    : 48.0 KHz\nBit depth                        : 16 bits\nStream size                      : 274 MiB (24%)\nAlignment                        : Split accross interleaves\nInterleave, duration             : 83 ms (2.00 video frames)\nInterleave, preload duration     : 500 ms\nLanguage                         : English\n\n","torrent":{"xt":"urn:btih:5fde190d136d38d9de348acee716d5c46fa1fcc2","amp;dn":"Red.Riding.Hood.%5B2011%5D.DvdRip.XviD-Kn%C3%83%C2%A3","amp;tr":["udp%3A%2F%2Ftracker.openbittorrent.com%3A80","udp%3A%2F%2Fopen.demonii.com%3A1337","udp%3A%2F%2Ftracker.coppersurfer.tk%3A6969","udp%3A%2F%2Fexodus.desync.com%3A6969"],"infoHash":"5fde190d136d38d9de348acee716d5c46fa1fcc2","infoHashBuffer":{"type":"Buffer","data":[95,222,25,13,19,109,56,217,222,52,138,206,231,22,213,196,111,161,252,194]},"announce":[],"urlList":[]}}